<svg xmlns="http://www.w3.org/2000/svg" xmlns:xlink="http://www.w3.org/1999/xlink" style="display:none">
  <!-- Stars Icon -->
   <symbol id="stars" viewBox="0 0 24 24 ">
    <g id="SVGRepo_bgCarrier" stroke-width="0"/>
    <g id="SVGRepo_tracerCarrier" stroke-linecap="round" stroke-linejoin="round"/>
    <g id="SVGRepo_iconCarrier"> <path d="M7.45284 2.71266C7.8276 1.76244 9.1724 1.76245 9.54716 2.71267L10.7085 5.65732C10.8229 5.94743 11.0526 6.17707 11.3427 6.29148L14.2873 7.45284C15.2376 7.8276 15.2376 9.1724 14.2873 9.54716L11.3427 10.7085C11.0526 10.8229 10.8229 11.0526 10.7085 11.3427L9.54716 14.2873C9.1724 15.2376 7.8276 15.2376 7.45284 14.2873L6.29148 11.3427C6.17707 11.0526 5.94743 10.8229 5.65732 10.7085L2.71266 9.54716C1.76244 9.1724 1.76245 7.8276 2.71267 7.45284L5.65732 6.29148C5.94743 6.17707 6.17707 5.94743 6.29148 5.65732L7.45284 2.71266Z" fill="#ffffff"/> <path d="M16.9245 13.3916C17.1305 12.8695 17.8695 12.8695 18.0755 13.3916L18.9761 15.6753C19.039 15.8348 19.1652 15.961 19.3247 16.0239L21.6084 16.9245C22.1305 17.1305 22.1305 17.8695 21.6084 18.0755L19.3247 18.9761C19.1652 19.039 19.039 19.1652 18.9761 19.3247L18.0755 21.6084C17.8695 22.1305 17.1305 22.1305 16.9245 21.6084L16.0239 19.3247C15.961 19.1652 15.8348 19.039 15.6753 18.9761L13.3916 18.0755C12.8695 17.8695 12.8695 17.1305 13.3916 16.9245L15.6753 16.0239C15.8348 15.961 15.961 15.8348 16.0239 15.6753L16.9245 13.3916Z" fill="#ffffff"/> </g>
  </symbol>

  <!-- Audit Report Icon -->
  <symbol id="audit-report" viewBox="0 0 512 512">
    <g id="Page-1" stroke="none" stroke-width="1" fill="none" fill-rule="evenodd">
    <g id="icon" fill="#ffffff" transform="translate(42.665250, 42.666667)">
    <path d="M341.33475,42.6666667 L426.668083,128 L426.668083,384 L0.00141677613,384 L1.36004076e-14,151.329691 C10.0983011,166.682012 24.2153849,184.436546 42.6673443,199.495392 L42.6680834,341.333333 L384.001417,341.333333 L384.001417,138.666667 L330.668083,85.3333333 L290.932237,85.3351205 C285.492739,74.6817682 276.348053,58.8452682 263.198008,42.6667242 L341.33475,42.6666667 Z M341.33475,277.333333 L341.33475,298.666667 L85.3347501,298.666667 L85.3347501,277.333333 L341.33475,277.333333 Z M341.33475,213.333333 L341.33475,234.666667 L213.33475,234.666667 L213.334687,214.29601 C213.875883,213.977904 214.414374,213.65703 214.950164,213.333459 L341.33475,213.333333 Z M138.668083,7.10542736e-15 C235.73475,7.10542736e-15 277.33475,106.666667 277.33475,106.666667 C277.33475,106.666667 235.73475,213.333333 138.668083,213.333333 C41.6014168,213.333333 0.00141677613,106.666667 0.00141677613,106.666667 C0.00141677613,106.666667 41.6014168,7.10542736e-15 138.668083,7.10542736e-15 Z M138.668083,26.6666667 C77.3774168,26.6666667 41.6014168,83.7333333 30.3694168,106.666667 C41.6014168,129.6 77.3774168,186.666667 138.668083,186.666667 C199.95875,186.666667 235.73475,129.6 246.96675,106.666667 C235.73475,83.7333333 199.95875,26.6666667 138.668083,26.6666667 Z M138.668083,60 C165.472303,60 187.201417,80.8933783 187.201417,106.666667 C187.201417,132.439955 165.472303,153.333333 138.668083,153.333333 C111.863864,153.333333 90.1347501,132.439955 90.1347501,106.666667 C90.1347501,80.8933783 111.863864,60 138.668083,60 Z M138.668083,86.6666667 C127.180561,86.6666667 117.868083,95.6209717 117.868083,106.666667 C117.868083,117.712362 127.180561,126.666667 138.668083,126.666667 C150.155606,126.666667 159.468083,117.712362 159.468083,106.666667 C159.468083,95.6209717 150.155606,86.6666667 138.668083,86.6666667 Z" id="Combined-Shape"/>
    </g></g>
    </symbol>

  <!-- File Download Icon -->
  <symbol id="file-download" viewBox="0 0 24 24">
    <path d="M13.5 3H12H8C6.34315 3 5 4.34315 5 6V18C5 19.6569 6.34315 21 8 21H12M13.5 3L19 8.625M13.5 3V7.625C13.5 8.17728 13.9477 8.625 14.5 8.625H19M19 8.625V11.8125" stroke="#A89138" stroke-width="2" stroke-linecap="round" stroke-linejoin="round"/>
    <path d="M17.5 15V21M17.5 21L15 18.5M17.5 21L20 18.5" stroke="#A89138" stroke-width="2" stroke-linecap="round" stroke-linejoin="round"/>
  </symbol>

  <!-- Compare Icon -->
  <symbol id="compare" viewBox="0 0 24 24">
    <path d="M2 4h9v1H3v15h8v1H2zm10 19h1V2h-1zM8.283 10.283l-.566-.566L4.934 12.5l2.783 2.783.566-.566L6.566 13H11v-1H6.566zM14 12h4.08l-1.54-1.54.92-.92 2.96 2.96-2.96 2.96-.92-.92L18.08 13H14v8h9V4h-9z"/>
    <path fill="none" d="M0 0h24v24H0z"/>
  </symbol>
</svg>
